<?xml version="1.0" encoding="utf-8"?>
<!-- Generator: Adobe Illustrator 22.1.0, SVG Export Plug-In . SVG Version: 6.00 Build 0)  -->
<svg version="1.1" id="Layer_1" xmlns="http://www.w3.org/2000/svg" xmlns:xlink="http://www.w3.org/1999/xlink" x="0px" y="0px"
	 viewBox="0 0 20 20" style="enable-background:new 0 0 20 20;" xml:space="preserve">
<style type="text/css">
	.st0{fill:#405464;}
	.st1{fill:#EE9721;}
</style>
<g>
	<path class="st0" d="M10,16.2c2.9,0,5.4-2,6.1-4.9h-1.7c-0.8,2.5-3.3,3.8-5.7,3.1c-2.5-0.8-3.8-3.3-3.1-5.7s3.3-3.8,5.7-3.1
		c1.5,0.5,2.7,1.6,3.1,3.1h1.7c-0.8-3.4-4-5.5-7.4-4.7S3.3,8,4,11.3C4.6,14.2,7.1,16.2,10,16.2"/>
	<path class="st1" d="M10,5.8c-2.4,0.1-4.3,2-4.2,4.3c0,0.6,0.1,1.1,0.4,1.6L7.7,11C7.1,9.7,7.8,8.2,9.1,7.6C9.4,7.5,9.7,7.4,10,7.4
		L10,5.8z"/>
	<path class="st1" d="M11,12.4l0.6,1.6c1.2-0.5,2.1-1.5,2.5-2.6h-1.9C12,11.8,11.5,12.2,11,12.4"/>
	<path class="st0" d="M18.1,11.3h-1.6c-0.7,3-3.3,5.2-6.3,5.2v1.6C14,18.1,17.4,15.2,18.1,11.3"/>
	<path class="st0" d="M10,3.5V1.9C6.7,2,3.7,4,2.5,7L4,7.6C5,5.2,7.3,3.6,10,3.5"/>
	<path class="st0" d="M11.6,6.1L11,7.6c0.5,0.2,1,0.6,1.2,1.1h1.9C13.7,7.5,12.8,6.6,11.6,6.1"/>
	<path class="st0" d="M10,14.3v-1.7c-0.7,0-1.3-0.3-1.7-0.7l-1.2,1.2C7.8,13.8,8.9,14.3,10,14.3"/>
	<path class="st0" d="M20,8.7c-0.2-1.4-0.7-2.8-1.4-3.9l-1.4,0.9c0.6,1,1,2,1.2,3.1L20,8.7L20,8.7z"/>
	<path class="st1" d="M20,11.3h-1.6c-0.7,4.1-4.2,7.1-8.3,7.1c-2.2,0-4.4-0.9-5.9-2.5L3,17.1C7,21,13.3,21,17.2,17
		C18.7,15.5,19.7,13.5,20,11.3"/>
	<path class="st1" d="M13,2.5L12.5,4c2,0.8,3.5,2.6,4,4.7h1.6C17.6,5.9,15.6,3.6,13,2.5"/>
	<path class="st0" d="M2.3,13.4c-0.5-1.1-0.7-2.2-0.7-3.3H0c0,1.4,0.3,2.7,0.8,3.9L2.3,13.4z"/>
	<path class="st1" d="M7,17.5l0.6-1.5c-2.4-1-4-3.4-4.1-6H1.9C2,13.3,3.9,16.3,7,17.5"/>
	<path class="st1" d="M4.3,1.8C2.7,2.9,1.5,4.5,0.7,6.3l1.5,0.6C3.5,3.7,6.6,1.6,10,1.6c1.8,0,3.6,0.6,5,1.7L16,2
		C12.5-0.6,7.8-0.7,4.3,1.8"/>
</g>
</svg>
